<svg xmlns="http://www.w3.org/2000/svg" xmlns:hw="https://tris.sherliker.net/ns/hw" viewBox="0 -1213 894 1955" width="894" height="1955"><metadata><hw:word text="on." advance="894" baseline="0" xheight="520" em="1000" ascent="1213" descent="742"/></metadata><g fill="currentColor"><path d="M106.2,-225.1C78.0,-216.9 67.6,-208.7 52.0,-184.2C24.5,-140.4 24.5,-104.0 52.7,-74.3C73.5,-52.0 78.0,-50.5 115.9,-53.5C144.1,-55.7 168.6,-63.9 193.9,-78.7C227.3,-98.8 231.0,-104.0 233.3,-130.7C234.7,-156.0 231.0,-164.2 203.5,-193.9C165.7,-234.7 153.0,-238.5 106.2,-225.1ZM147.8,-178.3C159.0,-166.4 171.6,-156.0 175.3,-156.0C184.2,-156.0 185.0,-118.9 176.8,-106.2C168.6,-93.6 130.7,-81.0 115.1,-85.4C107.7,-88.4 95.1,-99.5 86.9,-110.7C74.3,-128.5 72.8,-135.9 79.5,-158.2C92.1,-204.3 118.1,-211.7 147.8,-178.3ZM416.7,-214.7C400.4,-206.5 374.4,-186.5 359.5,-169.4C329.8,-138.2 309.0,-135.2 309.0,-163.4C309.0,-180.5 303.1,-182.0 284.5,-167.9C272.6,-159.0 271.9,-152.3 278.6,-112.2C287.5,-58.7 290.5,-52.0 308.3,-52.0C326.9,-52.0 349.1,-79.5 364.0,-119.6C382.6,-171.6 399.7,-187.2 440.5,-190.9C468.7,-193.9 478.4,-191.7 488.1,-181.3C505.1,-161.2 539.3,-95.1 539.3,-81.7C539.3,-54.2 575.7,-43.1 601.7,-61.7C614.3,-70.6 614.3,-72.8 595.8,-99.5C585.4,-115.9 576.5,-132.2 576.5,-137.4C576.5,-153.0 522.2,-209.5 497.0,-219.9C464.3,-234.0 451.7,-233.3 416.7,-214.7ZM805.3,-66.1C774.8,-49.0 805.3,-20.1 836.5,-37.1C853.5,-46.1 855.0,-52.7 842.4,-65.4C832.0,-75.8 822.3,-76.5 805.3,-66.1Z"/></g></svg>