<svg xmlns="http://www.w3.org/2000/svg" xmlns:hw="https://tris.sherliker.net/ns/hw" viewBox="0 -1213 2849 1955" width="2849" height="1955"><metadata><hw:word text="converted" advance="2849" baseline="0" xheight="520" em="1000" ascent="1213" descent="742"/></metadata><g fill="currentColor"><path d="M2003.1,-559.0C2005.3,-514.6 2004.2,-447.4 2000.9,-408.4L1993.3,-339.1L1914.3,-332.6C1835.2,-327.2 1758.3,-302.3 1743.1,-278.4C1738.8,-270.8 1734.4,-239.4 1734.4,-209.1C1734.4,-163.6 1729.0,-146.2 1710.6,-127.8C1696.5,-113.8 1680.3,-93.2 1674.8,-82.3C1661.8,-56.3 1628.3,-45.5 1553.5,-44.4C1499.3,-43.3 1462.5,-62.8 1497.2,-74.8C1527.5,-84.5 1582.8,-149.5 1582.8,-176.6C1582.8,-215.6 1557.8,-231.8 1504.8,-224.3C1438.7,-215.6 1415.9,-186.3 1414.8,-112.7C1413.8,-55.2 1415.9,-49.8 1446.3,-30.3C1467.9,-17.3 1490.7,-11.9 1512.3,-15.2C1530.8,-18.4 1577.3,-24.9 1618.5,-28.2C1681.3,-34.7 1691.1,-32.5 1691.1,-17.3C1691.1,3.2 1739.8,6.5 1752.8,-14.1C1763.7,-31.4 1764.8,-39.0 1781.0,-167.9C1794.0,-273.0 1795.1,-277.3 1827.6,-292.5C1846.0,-302.3 1887.2,-309.8 1919.7,-308.8L1978.2,-308.8L1984.7,-249.2C1991.2,-184.2 2010.7,-115.9 2031.3,-81.2C2038.8,-69.3 2056.2,-26.0 2070.2,16.2C2106.0,119.2 2127.7,144.1 2165.6,121.3C2176.4,113.8 2175.3,102.9 2162.3,66.1C2153.7,40.1 2146.1,15.2 2146.1,9.8C2146.1,4.3 2182.9,0.0 2227.3,0.0C2294.5,0.0 2314.0,4.3 2332.4,21.7C2374.7,60.7 2484.1,48.8 2590.3,-5.4C2630.3,-26.0 2655.3,-26.0 2655.3,-5.4C2655.3,92.1 2725.7,205.8 2786.3,205.8C2829.7,205.8 2832.9,190.7 2797.2,160.3C2745.2,115.9 2740.8,98.6 2741.9,-79.1C2744.1,-242.7 2745.2,-277.3 2757.1,-411.7C2764.7,-499.4 2759.3,-520.0 2724.6,-520.0C2698.6,-520.0 2698.6,-518.9 2697.5,-420.3C2696.4,-288.2 2689.9,-172.3 2683.4,-154.9C2680.2,-146.2 2659.6,-140.8 2633.6,-140.8C2567.5,-140.8 2498.2,-121.3 2396.3,-73.7C2346.5,-50.9 2292.3,-28.2 2275.0,-24.9C2239.3,-18.4 2182.9,-37.9 2174.3,-60.7C2166.7,-80.2 2172.1,-81.2 2272.8,-97.5C2353.0,-110.5 2377.9,-125.7 2371.4,-159.3C2368.2,-174.4 2357.3,-178.8 2319.4,-177.7C2247.9,-176.6 2143.9,-145.2 2121.2,-117.0C2098.4,-89.9 2093.0,-94.3 2062.7,-172.3C2045.3,-216.7 2045.3,-219.9 2063.8,-234.0C2086.5,-250.3 2228.4,-265.4 2272.8,-255.7C2290.2,-251.3 2316.2,-252.4 2331.3,-258.9C2381.2,-277.3 2323.8,-284.9 2178.6,-278.4L2041.0,-270.8L2046.4,-436.6C2049.7,-581.8 2048.6,-605.6 2032.3,-620.8C2002.0,-652.2 1997.7,-642.4 2003.1,-559.0ZM1543.8,-182.0C1552.4,-167.9 1549.2,-158.2 1528.6,-135.4C1514.5,-120.3 1493.9,-108.3 1482.0,-108.3C1464.7,-108.3 1462.5,-113.8 1469.0,-144.1C1483.1,-205.8 1516.7,-224.3 1543.8,-182.0ZM2304.3,-139.8C2316.2,-119.2 2291.3,-106.2 2255.5,-113.8C2218.7,-121.3 2211.1,-136.5 2241.4,-144.1C2275.0,-152.8 2296.7,-151.7 2304.3,-139.8ZM2637.9,-112.7C2657.4,-105.1 2661.8,-65.0 2643.3,-65.0C2636.8,-65.0 2617.3,-55.2 2601.1,-43.3C2563.2,-16.2 2441.8,23.8 2411.5,19.5C2375.8,14.1 2377.9,-27.1 2416.9,-56.3C2476.5,-99.7 2593.5,-130.0 2637.9,-112.7ZM128.9,-326.1C93.2,-303.3 72.6,-279.5 52.0,-237.3C19.5,-169.0 26.0,-134.3 79.1,-79.1C108.3,-48.8 121.3,-43.3 162.5,-43.3C190.7,-43.3 247.0,-56.3 288.2,-71.5C405.2,-114.8 406.3,-114.8 434.4,-75.8C458.2,-42.3 461.5,-41.2 527.6,-45.5C664.1,-54.2 709.6,-137.6 631.6,-234.0C620.8,-248.1 594.8,-260.0 566.6,-264.3C522.2,-270.8 516.8,-268.7 478.8,-230.8C457.2,-208.0 432.3,-178.8 423.6,-164.7C406.3,-137.6 241.6,-75.8 186.3,-75.8C147.3,-75.8 99.7,-125.7 92.1,-175.5C86.7,-204.8 92.1,-223.2 113.8,-257.8C154.9,-322.8 209.1,-344.5 239.4,-308.8C257.8,-287.1 271.9,-288.2 271.9,-312.0C271.9,-365.1 202.6,-372.7 128.9,-326.1ZM605.6,-150.6C613.2,-89.9 509.2,-48.8 488.6,-104.0C474.5,-140.8 473.4,-138.7 513.5,-162.5C561.2,-192.8 601.3,-187.4 605.6,-150.6ZM1378.0,-252.4C1345.5,-211.2 1304.3,-156.0 1285.9,-127.8C1237.2,-53.1 1214.4,-57.4 1176.5,-146.2C1154.8,-196.1 1140.8,-216.7 1126.7,-216.7C1094.2,-216.7 1095.2,-202.6 1133.2,-126.8C1177.6,-37.9 1206.8,0.0 1228.5,0.0C1238.2,0.0 1268.6,-35.8 1296.8,-79.1C1326.0,-121.3 1374.8,-189.6 1406.2,-229.7C1437.6,-269.8 1463.6,-307.7 1463.6,-313.1C1463.6,-342.3 1431.1,-318.5 1378.0,-252.4ZM923.0,-252.4C907.8,-249.2 872.1,-230.8 841.8,-210.2C811.4,-189.6 781.1,-173.3 775.7,-173.3C769.2,-173.3 752.9,-188.5 739.9,-205.8C717.2,-236.2 683.6,-250.3 683.6,-228.6C683.6,-224.3 689.0,-193.9 694.4,-161.4C712.8,-66.1 733.4,-63.9 832.0,-151.7C872.1,-187.4 911.1,-216.7 919.8,-216.7C941.4,-216.7 984.8,-164.7 993.4,-126.8C1009.7,-50.9 1069.2,11.9 1109.3,-3.2C1125.6,-9.8 1124.5,-15.2 1100.7,-49.8C1085.5,-71.5 1073.6,-97.5 1073.6,-107.3C1073.6,-146.2 980.4,-265.4 954.4,-258.9C951.2,-257.8 937.1,-254.6 923.0,-252.4Z"/></g></svg>