<svg xmlns="http://www.w3.org/2000/svg" xmlns:hw="https://tris.sherliker.net/ns/hw" viewBox="0 -1213 2906 1955" width="2906" height="1955"><metadata><hw:word text="original" advance="2906" baseline="0" xheight="520" em="1000" ascent="1213" descent="742"/></metadata><g fill="currentColor"><path d="M654.3,-761.6C634.8,-754.0 637.0,-720.4 656.5,-704.2C670.6,-692.3 678.2,-695.5 699.8,-719.3C715.0,-735.6 724.8,-754.0 721.5,-759.4C715.0,-769.2 677.1,-771.3 654.3,-761.6ZM1168.9,-692.3C1141.8,-677.1 1145.1,-660.8 1174.3,-660.8C1199.3,-660.8 1225.2,-679.3 1225.2,-695.5C1225.2,-707.4 1191.7,-705.3 1168.9,-692.3ZM2243.6,-684.7C2219.8,-673.8 2204.6,-656.5 2202.4,-642.4C2198.1,-611.0 2212.2,-609.9 2230.6,-640.3C2239.3,-653.3 2249.0,-659.8 2254.4,-654.3C2259.8,-648.9 2269.6,-583.9 2276.1,-509.2C2283.7,-434.4 2293.4,-352.1 2299.9,-325.0C2320.5,-229.7 2318.3,-222.1 2272.8,-218.8C2223.0,-214.5 2141.8,-251.3 2116.8,-288.2C2101.7,-310.9 2096.2,-382.4 2104.9,-422.5C2107.1,-432.3 2091.9,-436.6 2051.8,-435.5C2008.5,-435.5 1978.2,-425.8 1918.6,-394.3C1829.8,-347.8 1802.7,-316.3 1821.1,-282.8C1841.7,-242.7 1904.5,-253.5 2004.2,-314.2C2026.9,-328.2 2030.2,-328.2 2035.6,-314.2C2038.8,-305.5 2058.3,-280.6 2080.0,-257.8C2124.4,-213.4 2181.8,-193.9 2275.0,-191.8C2332.4,-189.6 2338.9,-186.3 2384.4,-139.8C2473.3,-47.7 2596.8,-42.3 2831.8,-120.2C2870.8,-133.3 2891.4,-159.3 2853.5,-147.3C2764.7,-120.2 2691.0,-108.3 2611.9,-108.3C2530.7,-108.3 2514.4,-111.6 2479.8,-135.4C2401.8,-188.5 2369.3,-282.8 2341.1,-534.1C2330.3,-632.7 2308.6,-704.2 2289.1,-704.2C2284.8,-704.2 2264.2,-695.5 2243.6,-684.7ZM2010.7,-377.0C2010.7,-353.2 1932.7,-292.5 1901.3,-292.5C1856.8,-292.5 1869.8,-330.4 1926.2,-367.3C1980.3,-403.0 2010.7,-407.3 2010.7,-377.0ZM486.4,-568.8C398.7,-523.3 384.6,-479.9 423.6,-383.5C434.4,-354.3 452.8,-302.3 461.5,-267.6C477.8,-211.2 482.1,-205.8 502.7,-212.3C542.8,-224.3 542.8,-230.8 515.7,-308.8C500.5,-351.0 488.6,-394.3 488.6,-406.2C488.6,-418.2 481.0,-436.6 473.4,-447.4C451.8,-475.6 464.8,-518.9 502.7,-537.3C548.2,-561.2 622.9,-551.4 659.8,-517.8C708.5,-473.4 757.3,-448.5 771.3,-462.6C780.0,-471.2 771.3,-485.3 737.8,-516.8C711.8,-539.5 679.3,-566.6 663.0,-576.3C622.9,-603.4 548.2,-600.2 486.4,-568.8ZM151.7,-516.8C115.9,-500.5 60.7,-436.6 52.0,-401.9C47.7,-385.7 54.2,-354.3 68.2,-321.8C124.6,-191.8 263.2,-184.2 345.6,-307.7C388.9,-372.7 392.2,-435.5 356.4,-483.2C343.4,-500.5 327.2,-517.8 320.7,-522.2C303.3,-535.2 183.1,-530.8 151.7,-516.8ZM300.1,-474.5C309.8,-464.8 320.7,-433.3 322.8,-404.1C327.2,-359.7 323.9,-346.7 296.8,-313.1C239.4,-238.3 206.9,-237.3 141.9,-305.5C113.8,-334.8 109.4,-347.8 111.6,-383.5C113.8,-419.3 119.2,-427.9 141.9,-433.3C157.1,-437.7 167.9,-447.4 165.8,-455.0C159.2,-485.3 173.3,-495.1 227.5,-494.0C263.2,-492.9 288.2,-486.4 300.1,-474.5ZM980.4,-475.6C930.6,-461.5 835.2,-368.3 835.2,-334.8C835.2,-297.9 859.1,-249.2 878.6,-248.1C917.6,-243.8 962.0,-252.4 1017.3,-277.3C1049.8,-291.4 1082.3,-303.3 1090.9,-303.3C1109.3,-303.3 1127.8,-212.3 1137.5,-67.2C1148.3,69.3 1135.3,137.6 1088.8,185.2C1007.5,270.8 828.8,247.0 696.6,135.4C643.5,88.8 603.4,-2.2 609.9,-65.0C614.3,-115.9 595.8,-123.5 568.8,-81.2C553.6,-58.5 552.5,-46.6 563.3,-2.2C601.3,147.3 738.8,255.7 906.8,267.6C1015.1,276.2 1073.6,257.8 1139.7,196.1C1186.2,152.7 1194.9,137.6 1205.8,82.3C1218.8,11.9 1203.6,-189.6 1176.5,-303.3C1168.9,-335.8 1159.2,-388.9 1154.8,-420.3C1150.5,-453.9 1141.8,-476.7 1134.3,-476.7C1107.2,-476.7 1084.4,-437.7 1084.4,-392.2C1084.4,-351.0 1080.1,-344.5 1040.0,-317.4C1011.8,-299.0 981.5,-288.2 951.2,-288.2L905.7,-287.1L902.4,-336.9C899.2,-386.8 900.2,-388.9 949.0,-421.4C1011.8,-463.7 1023.8,-463.7 1016.2,-422.5C1009.7,-395.4 1012.9,-390.0 1030.2,-390.0C1043.2,-390.0 1054.1,-399.8 1058.4,-416.0C1073.6,-477.8 1049.8,-496.2 980.4,-475.6ZM1566.5,-448.5C1542.7,-439.8 1512.3,-420.3 1499.3,-403.0C1477.7,-378.1 1472.3,-375.9 1452.8,-387.8C1417.0,-409.5 1394.2,-405.2 1404.0,-377.0C1408.3,-362.9 1413.8,-336.9 1417.0,-317.4C1430.0,-237.3 1471.2,-248.1 1513.4,-342.3C1539.4,-400.8 1553.5,-411.7 1606.6,-411.7C1651.0,-411.7 1671.6,-385.7 1681.3,-320.7C1693.3,-232.9 1717.1,-184.2 1749.6,-184.2C1784.3,-184.2 1789.7,-193.9 1777.8,-239.4C1772.3,-260.0 1760.4,-304.4 1750.7,-339.1C1736.6,-391.1 1725.8,-406.2 1688.9,-433.3C1639.1,-469.1 1628.3,-471.2 1566.5,-448.5ZM1261.0,-424.7C1243.7,-413.8 1263.2,-289.3 1287.0,-252.4C1300.0,-231.8 1306.5,-230.8 1329.2,-240.5C1356.3,-253.5 1361.8,-265.4 1345.5,-275.2C1340.1,-279.5 1329.2,-316.3 1321.7,-357.5C1308.7,-433.3 1295.7,-447.4 1261.0,-424.7ZM717.2,-375.9C709.6,-366.2 708.5,-349.9 716.1,-323.9C722.6,-304.4 726.9,-268.7 726.9,-244.8C726.9,-211.2 730.2,-204.8 744.3,-210.2C754.0,-213.4 765.9,-216.7 771.3,-216.7C777.8,-216.7 780.0,-242.7 776.8,-279.5C773.5,-313.1 771.3,-352.1 771.3,-366.2C770.2,-393.2 737.8,-399.8 717.2,-375.9Z"/></g></svg>