<svg xmlns="http://www.w3.org/2000/svg" xmlns:hw="https://tris.sherliker.net/ns/hw" viewBox="0 -1213 1275 1955" width="1275" height="1955"><metadata><hw:word text="good" advance="1275" baseline="0" xheight="520" em="1000" ascent="1213" descent="742"/></metadata><g fill="currentColor"><path d="M1098.8,-761.1C1089.3,-756.4 1081.2,-746.9 1079.8,-739.5C1078.5,-732.1 1075.1,-719.9 1071.7,-712.5C1058.9,-682.1 1043.4,-549.7 1046.1,-487.6L1048.1,-422.8L1023.1,-408.6C994.8,-392.4 967.1,-368.1 925.2,-322.1C891.4,-285.7 877.2,-276.9 850.9,-276.9C825.9,-276.9 817.1,-283.6 811.7,-304.6C800.9,-347.8 745.6,-391.7 701.7,-391.7C677.4,-391.7 621.3,-356.6 611.2,-334.3C602.4,-314.7 585.5,-311.3 585.5,-329.6C585.5,-348.5 555.8,-364.0 497.0,-376.2C475.4,-380.2 391.7,-341.0 386.3,-324.2C378.9,-301.2 388.3,-230.3 401.1,-213.4C427.5,-176.9 461.2,-179.0 530.1,-221.5C549.7,-233.0 568.6,-243.1 572.0,-243.1C575.4,-243.1 581.5,-231.0 585.5,-216.1C595.6,-177.6 622.6,-155.3 657.1,-155.3C689.5,-155.3 755.0,-194.5 779.3,-227.6C791.5,-244.5 799.6,-248.5 830.0,-251.9C849.6,-253.9 871.8,-258.0 878.6,-260.7C889.4,-264.7 890.8,-263.4 886.7,-253.2C884.0,-245.1 888.1,-232.3 899.5,-215.4C916.4,-191.8 919.1,-190.4 938.7,-196.5C950.9,-199.9 961.0,-202.6 961.7,-202.6C962.3,-202.6 984.6,-220.8 1010.3,-243.1C1036.6,-265.4 1060.9,-283.6 1064.3,-283.6C1068.4,-283.6 1082.5,-260.0 1095.4,-231.6C1108.9,-202.6 1122.4,-174.2 1125.8,-168.8C1129.1,-163.4 1136.6,-149.9 1141.3,-138.4C1146.7,-127.6 1155.5,-114.1 1161.6,-108.7C1168.3,-104.0 1173.0,-95.9 1173.0,-90.5C1173.0,-81.7 1192.6,-67.5 1204.8,-67.5C1208.2,-67.5 1216.3,-71.6 1223.0,-76.3C1234.5,-85.1 1233.8,-87.1 1212.2,-122.2C1179.8,-174.2 1166.3,-205.3 1131.8,-303.2L1111.6,-359.9L1127.8,-384.3C1148.7,-416.7 1170.3,-463.9 1176.4,-491.6C1182.5,-522.0 1183.2,-607.8 1177.1,-670.6C1172.4,-715.8 1169.0,-726.6 1151.4,-746.9C1129.1,-771.9 1123.7,-773.9 1098.8,-761.1ZM1138.6,-691.5C1150.8,-663.8 1148.7,-515.9 1135.9,-476.1C1111.6,-402.5 1085.2,-413.3 1085.2,-495.7C1085.2,-522.0 1090.0,-577.4 1096.7,-617.9C1110.9,-709.8 1121.0,-728.7 1138.6,-691.5ZM1054.2,-380.9C1067.0,-348.5 1058.9,-330.2 1008.9,-279.6C981.9,-251.9 956.3,-229.6 951.5,-229.6C947.5,-229.6 940.7,-235.7 936.7,-243.1C925.2,-264.1 948.2,-307.3 994.8,-353.2C1035.3,-393.0 1047.4,-399.1 1054.2,-380.9ZM732.7,-342.4C742.9,-338.3 755.0,-325.5 760.4,-314.0C769.2,-295.8 768.5,-291.7 746.9,-251.2C721.2,-203.3 694.2,-183.7 663.8,-191.8C635.5,-198.5 624.0,-223.5 629.4,-264.1C633.5,-293.8 636.8,-299.2 653.7,-305.2C670.6,-310.6 673.3,-315.4 673.3,-335.6C673.3,-358.6 674.0,-359.3 694.2,-355.2C705.7,-353.2 723.3,-347.1 732.7,-342.4ZM535.5,-336.3C559.2,-318.1 546.3,-263.4 511.2,-233.7C476.1,-203.9 445.0,-214.1 434.2,-258.6C430.9,-272.8 432.9,-278.2 441.7,-281.6C466.0,-290.4 470.7,-297.1 461.9,-312.0C455.2,-322.8 455.8,-326.9 468.7,-337.0C483.5,-349.1 520.0,-349.1 535.5,-336.3ZM255.9,-395.1C201.9,-382.9 118.2,-338.3 81.0,-301.9C56.7,-278.9 52.0,-270.1 52.0,-247.8C52.0,-228.3 56.7,-216.8 71.6,-201.9C91.2,-183.0 121.6,-175.6 129.0,-188.4C131.0,-191.8 143.2,-196.5 156.0,-198.5C168.2,-201.2 185.7,-210.0 194.5,-218.1C203.3,-226.9 218.1,-238.4 227.6,-245.1C237.0,-251.2 251.2,-261.4 259.3,-267.4C273.5,-277.6 274.9,-276.9 285.0,-251.9C299.2,-220.8 317.4,-160.1 339.7,-74.3C357.9,-4.7 358.6,58.1 341.0,124.9C331.6,160.7 330.2,161.4 285.0,151.9C248.5,143.8 164.8,98.6 139.8,72.3C125.6,58.1 109.4,31.1 102.6,10.8C91.2,-23.6 91.2,-25.7 102.6,-58.1C109.4,-76.3 120.9,-99.3 127.6,-109.4C151.3,-144.5 136.4,-145.2 102.0,-110.8C56.7,-64.8 41.9,-12.8 62.8,31.1C92.5,93.2 164.8,149.9 249.9,179.0C315.4,200.6 335.6,200.6 358.6,178.3C385.6,150.6 393.0,114.8 393.0,10.1C392.4,-89.8 395.1,-77.7 347.8,-219.5C320.1,-301.9 320.1,-302.5 349.8,-330.2C374.1,-352.5 376.2,-356.6 370.1,-372.8C366.7,-382.2 360.6,-392.4 357.2,-394.4C342.4,-403.2 295.1,-403.8 255.9,-395.1ZM276.2,-360.6C274.9,-353.9 272.2,-339.7 270.1,-329.6C265.4,-305.2 185.0,-228.9 151.9,-217.5C118.2,-205.3 92.5,-220.8 92.5,-252.6C92.5,-292.4 131.0,-325.5 215.4,-357.9C270.1,-378.9 278.9,-379.5 276.2,-360.6ZM334.3,-349.8C330.2,-337.7 315.4,-335.6 315.4,-347.1C315.4,-353.2 320.1,-357.9 326.2,-357.9C332.3,-357.9 335.6,-354.5 334.3,-349.8Z"/></g></svg>