<svg xmlns="http://www.w3.org/2000/svg" xmlns:hw="https://tris.sherliker.net/ns/hw" viewBox="0 -1171 2148 1726" width="2148" height="1726"><metadata><hw:word text="great" advance="2148" baseline="0" xheight="520" em="1000" ascent="1171" descent="555"/></metadata><g fill="currentColor"><path d="M1418.2,-579.1C1407.6,-568.4 1407.6,-565.6 1416.8,-547.1C1428.9,-523.6 1434.6,-412.4 1425.4,-386.1C1422.5,-376.8 1415.4,-370.4 1411.1,-371.8C1396.9,-374.0 1348.4,-356.2 1348.4,-348.3C1348.4,-343.3 1362.7,-342.6 1386.9,-345.5L1425.4,-350.5L1429.6,-302.0C1431.1,-275.0 1433.2,-237.9 1433.2,-219.4C1433.2,-200.9 1436.8,-172.4 1441.8,-156.7C1446.7,-141.0 1448.9,-126.1 1446.7,-123.9C1436.8,-114.0 1384.8,-119.7 1354.8,-133.9C1303.6,-158.8 1282.2,-227.9 1309.3,-280.7C1315.0,-291.3 1319.9,-303.5 1319.9,-306.3C1319.9,-317.0 1253.7,-356.2 1236.6,-356.2C1211.0,-356.2 1139.0,-317.0 1116.9,-290.6C1088.4,-257.2 1069.9,-213.7 1078.5,-198.7C1082.0,-191.6 1096.3,-179.5 1109.8,-171.0C1139.0,-152.4 1166.8,-155.3 1198.8,-178.1C1228.1,-198.7 1245.2,-196.6 1258.0,-169.5C1285.0,-112.5 1352.0,-81.9 1430.4,-90.5C1458.8,-94.0 1466.7,-91.9 1489.5,-73.4C1542.9,-31.3 1625.5,0.0 1683.9,0.0C1723.8,0.0 1839.9,-19.2 1849.9,-27.8C1854.2,-31.3 1875.6,-41.3 1896.9,-50.6C1918.3,-59.8 1956.8,-81.2 1981.7,-97.6C2006.6,-114.7 2030.8,-128.2 2035.1,-128.2C2040.1,-128.2 2055.8,-140.3 2070.0,-155.3C2089.3,-175.2 2096.4,-188.1 2096.4,-205.2C2096.4,-234.4 2087.1,-234.4 2067.9,-203.7C2049.4,-173.1 1981.0,-123.2 1916.9,-93.3C1890.5,-81.2 1866.3,-71.2 1862.7,-71.2C1859.2,-71.2 1845.6,-65.5 1832.1,-59.1C1797.2,-40.6 1664.0,-41.3 1619.8,-59.1C1575.0,-77.6 1545.0,-102.6 1515.8,-146.7C1490.9,-183.8 1490.2,-187.3 1485.9,-270.0L1481.6,-354.7L1505.9,-365.4C1535.1,-377.5 1575.0,-386.8 1683.2,-406.0C1728.1,-413.9 1768.0,-423.8 1772.3,-428.1C1777.3,-433.1 1772.3,-434.5 1754.5,-431.7C1740.9,-429.5 1701.0,-423.8 1666.8,-420.3C1632.7,-416.0 1587.8,-409.6 1567.8,-406.0C1547.9,-401.8 1520.8,-398.9 1508.0,-398.9C1484.5,-398.9 1483.8,-399.6 1483.8,-429.5C1483.8,-500.1 1458.1,-591.2 1438.2,-591.2C1433.2,-591.2 1424.7,-586.2 1418.2,-579.1ZM1248.7,-313.4C1264.4,-297.8 1266.5,-287.8 1255.8,-281.4C1252.3,-279.2 1248.7,-271.4 1248.7,-264.3C1248.7,-247.9 1191.0,-192.3 1173.9,-192.3C1121.9,-193.0 1108.4,-220.1 1137.6,-262.8C1148.3,-277.8 1163.9,-296.3 1173.2,-304.9C1188.2,-317.7 1196.7,-320.5 1229.5,-327.0C1232.3,-327.0 1240.9,-321.3 1248.7,-313.4ZM892.5,-463.0C879.0,-459.5 837.0,-450.2 799.9,-441.6C636.8,-406.0 607.6,-395.3 607.6,-370.4C607.6,-351.2 599.1,-348.3 574.8,-360.4C524.3,-387.5 411.7,-331.2 375.4,-261.4C356.9,-226.5 385.4,-156.7 418.8,-156.7C427.4,-156.7 460.2,-171.0 490.8,-188.1C521.4,-205.2 549.9,-218.0 554.9,-215.8C559.2,-214.4 567.0,-198.0 572.0,-179.5C577.0,-161.0 583.4,-143.2 586.2,-138.9C589.1,-135.3 594.1,-107.6 596.2,-77.6C598.4,-47.7 604.8,-12.1 609.8,0.7C624.0,40.6 621.2,202.3 604.8,247.9C592.7,283.5 589.1,287.8 549.2,306.3C490.8,334.1 422.4,339.1 308.4,324.1C225.8,313.4 122.5,284.9 71.2,259.3C52.7,249.3 52.0,249.3 52.0,270.0C52.0,291.3 51.3,291.3 133.9,320.5C196.6,342.6 218.0,347.6 287.1,356.2C324.1,361.2 366.1,366.8 379.7,369.7C413.9,376.1 502.9,364.7 544.9,348.3C606.9,324.1 633.3,302.7 653.2,260.7C671.0,223.7 671.7,218.0 668.9,117.5C667.5,54.8 662.5,9.3 658.2,5.0C653.9,0.7 650.4,-12.1 650.4,-24.2C650.4,-45.6 642.5,-92.6 624.7,-179.5C613.3,-235.1 611.9,-282.1 621.9,-288.5C634.0,-295.6 648.9,-260.7 653.9,-212.3C656.1,-185.9 661.0,-162.4 663.9,-160.3C667.5,-158.8 673.9,-142.5 678.8,-124.7C689.5,-85.5 695.2,-81.9 722.3,-92.6C746.5,-103.3 746.5,-99.7 728.7,-149.6C720.9,-171.0 715.2,-198.0 714.5,-208.7C714.5,-227.9 696.7,-277.8 673.9,-324.1C653.2,-366.1 663.9,-375.4 764.3,-403.2C785.7,-409.6 817.8,-416.7 835.6,-420.3C891.1,-431.0 974.5,-450.2 977.3,-453.0C988.0,-463.0 924.6,-470.1 892.5,-463.0ZM547.8,-333.4C564.9,-325.5 566.3,-322.0 562.7,-294.2C559.2,-262.8 528.5,-220.8 507.9,-220.8C502.2,-220.8 489.4,-214.4 479.4,-206.6C453.0,-185.9 433.1,-188.1 422.4,-213.7C410.3,-243.6 417.4,-264.3 452.3,-299.2C495.1,-341.9 514.3,-348.3 547.8,-333.4ZM866.9,-328.4C854.8,-326.2 834.1,-316.3 820.6,-307.0C795.0,-289.9 757.2,-237.2 757.2,-219.4C757.2,-213.7 753.6,-205.9 748.7,-200.9C734.4,-186.6 753.6,-138.2 783.6,-116.1C807.1,-98.3 814.9,-96.2 866.9,-96.2C910.4,-96.2 940.3,-101.2 987.3,-116.1C1047.1,-135.3 1066.4,-149.6 1032.9,-149.6C1024.3,-149.6 1010.1,-145.3 1002.2,-139.6C994.4,-133.9 961.6,-127.5 930.3,-124.7C875.5,-119.7 869.8,-120.4 839.1,-138.2C800.7,-161.0 787.8,-183.1 799.2,-205.9C806.4,-218.0 810.6,-219.4 821.3,-213.7C846.2,-200.2 909.6,-211.6 949.5,-235.8C968.8,-247.9 985.2,-262.1 985.2,-267.8C985.2,-280.7 916.1,-334.8 901.1,-334.1C894.0,-333.4 879.0,-331.2 866.9,-328.4ZM918.9,-291.3C967.3,-261.4 928.2,-227.9 860.5,-242.2C819.2,-250.7 814.2,-257.9 834.1,-282.1C856.2,-309.9 884.0,-312.7 918.9,-291.3ZM71.9,-5.7C60.5,-2.1 52.0,4.3 52.0,7.8C52.0,17.1 59.1,15.7 87.6,0.0C114.0,-14.2 104.7,-17.8 71.9,-5.7Z"/></g></svg>