<svg xmlns="http://www.w3.org/2000/svg" xmlns:hw="https://tris.sherliker.net/ns/hw" viewBox="0 -1213 1854 1955" width="1854" height="1955"><metadata><hw:word text="would." advance="1854" baseline="0" xheight="520" em="1000" ascent="1213" descent="742"/></metadata><g fill="currentColor"><path d="M1545.1,-647.6L1528.3,-641.6L1526.2,-516.6C1522.9,-314.0 1520.2,-260.7 1515.4,-248.5C1512.7,-242.4 1495.2,-231.6 1476.3,-224.9C1427.0,-207.3 1389.8,-168.8 1361.5,-106.7C1354.7,-91.2 1348.6,-87.8 1327.7,-87.8C1306.8,-87.8 1302.0,-90.5 1299.3,-103.3C1297.3,-111.4 1293.9,-127.6 1291.9,-138.4C1289.9,-149.9 1281.8,-171.5 1274.3,-186.4C1257.5,-222.2 1248.0,-278.9 1245.3,-370.1C1242.6,-435.6 1229.8,-513.9 1217.6,-532.8C1211.5,-543.6 1183.8,-541.6 1174.4,-530.8C1167.6,-523.4 1167.6,-517.3 1174.4,-505.8C1183.2,-488.3 1202.1,-335.6 1200.7,-289.0C1200.1,-254.6 1216.9,-161.4 1228.4,-140.5C1236.5,-125.6 1233.8,-43.9 1224.4,-24.3C1219.6,-12.8 1221.0,-12.2 1238.5,-16.2C1249.4,-18.9 1264.2,-27.0 1271.6,-33.8C1284.5,-45.2 1331.1,-67.5 1343.2,-67.5C1346.6,-67.5 1349.3,-63.5 1349.3,-58.8C1349.3,-45.2 1378.3,-20.3 1393.9,-20.9C1438.4,-22.3 1508.0,-79.0 1533.0,-133.7C1539.7,-149.2 1548.5,-162.1 1551.2,-162.1C1554.6,-162.1 1562.0,-147.9 1568.8,-131.0C1582.3,-94.5 1616.1,-54.0 1632.3,-54.0C1638.3,-54.0 1647.1,-56.7 1652.5,-60.1C1660.6,-65.5 1658.6,-72.9 1641.7,-106.0C1588.4,-206.0 1573.5,-288.4 1579.6,-453.1C1584.3,-577.4 1580.3,-649.7 1568.8,-652.4C1565.4,-653.0 1554.6,-651.0 1545.1,-647.6ZM1511.4,-197.9C1511.4,-160.7 1437.1,-54.0 1412.1,-54.0C1399.9,-54.0 1401.3,-90.5 1414.1,-116.8C1427.6,-143.2 1490.4,-209.4 1502.6,-209.4C1507.3,-209.4 1511.4,-203.9 1511.4,-197.9ZM446.4,-336.3C437.6,-332.3 430.9,-324.8 430.9,-319.4C430.9,-310.0 445.7,-283.0 464.6,-260.0C488.9,-229.6 502.4,-143.2 485.6,-126.3C479.5,-120.2 474.1,-122.9 461.9,-138.4C453.1,-149.9 437.6,-168.2 428.2,-179.0C418.7,-190.4 410.6,-201.2 410.6,-203.3C410.6,-212.1 370.1,-224.2 353.9,-220.2C336.3,-216.1 222.9,-143.2 203.3,-123.6C183.0,-103.3 129.0,-60.8 124.3,-60.8C112.8,-60.8 99.3,-112.8 93.9,-174.9C88.5,-241.1 80.4,-263.4 62.1,-263.4C45.9,-263.4 44.6,-249.9 52.0,-176.9C61.5,-85.8 72.3,-35.8 84.4,-25.7C99.3,-13.5 155.3,-44.6 214.8,-97.9C242.4,-122.9 272.8,-147.9 282.3,-153.3C291.7,-159.4 310.6,-172.2 325.5,-181.7L351.8,-199.2L379.5,-166.1C446.4,-87.1 461.2,-74.3 486.9,-74.3C515.9,-74.3 530.1,-91.2 542.3,-140.5C551.1,-173.6 565.9,-187.1 564.6,-160.7C561.9,-115.5 567.3,-88.5 584.2,-62.1C600.4,-37.1 605.8,-33.8 627.4,-33.8C671.3,-33.8 769.9,-99.3 790.8,-143.2C800.3,-162.8 800.3,-166.8 788.8,-188.4C774.6,-216.1 728.0,-262.7 696.3,-280.9C684.1,-287.7 674.0,-295.8 674.0,-298.5C674.0,-301.2 669.9,-303.9 665.2,-303.9C654.4,-303.9 553.8,-251.2 549.0,-243.1C539.6,-228.3 527.4,-239.1 509.9,-278.9C482.2,-339.0 480.8,-341.0 470.7,-342.4C465.3,-343.1 454.5,-340.4 446.4,-336.3ZM682.1,-244.5C701.0,-237.0 748.3,-175.6 748.3,-158.7C748.3,-149.9 740.2,-133.7 730.7,-121.6C711.8,-99.3 659.1,-60.8 647.6,-60.8C636.2,-60.8 613.2,-121.6 613.2,-151.3C613.2,-166.1 620.6,-195.2 630.1,-214.8C646.3,-249.9 655.1,-255.3 682.1,-244.5ZM846.2,-270.1C844.2,-266.8 844.2,-232.3 846.2,-194.5C848.9,-156.0 850.9,-105.4 850.9,-81.7C850.9,-58.1 853.6,-31.7 856.3,-23.0C869.1,10.8 915.1,-8.8 967.7,-70.2C986.0,-91.2 1004.2,-108.1 1008.9,-108.1C1013.0,-108.1 1020.4,-98.6 1025.1,-87.1C1033.9,-66.2 1070.4,-33.8 1085.2,-33.8C1089.3,-33.8 1098.8,-29.7 1106.9,-25.7C1119.0,-17.6 1123.1,-19.6 1140.6,-39.2C1169.7,-71.6 1167.0,-83.1 1131.2,-77.7C1104.8,-73.6 1101.5,-75.0 1087.9,-93.9C1069.0,-118.9 1059.6,-160.1 1058.9,-214.8C1058.9,-257.3 1058.9,-257.3 1040.7,-255.3C1024.5,-253.2 1019.7,-247.8 1008.3,-212.7C988.0,-151.3 929.2,-67.5 907.0,-67.5C900.9,-67.5 897.5,-91.8 894.8,-154.0C890.8,-249.2 884.0,-276.9 863.7,-276.9C856.3,-276.9 848.2,-274.2 846.2,-270.1ZM1751.1,-94.5C1745.0,-85.1 1759.9,-67.5 1774.1,-67.5C1787.6,-67.5 1801.8,-80.4 1801.8,-92.5C1801.8,-103.3 1757.2,-104.7 1751.1,-94.5Z"/></g></svg>