<svg xmlns="http://www.w3.org/2000/svg" xmlns:hw="https://tris.sherliker.net/ns/hw" viewBox="0 -1213 2121 1955" width="2121" height="1955"><metadata><hw:word text="stroke" advance="2121" baseline="0" xheight="520" em="1000" ascent="1213" descent="742"/></metadata><g fill="currentColor"><path d="M497.7,-731.4C497.7,-723.9 495.7,-722.6 493.7,-728.0C492.3,-732.1 487.6,-736.1 483.5,-736.1C479.5,-736.1 478.8,-709.1 481.5,-660.5C487.6,-559.8 488.3,-548.4 486.2,-468.7L484.9,-400.5L429.5,-393.0C367.4,-384.3 332.9,-367.4 352.5,-356.6C359.9,-352.5 370.8,-352.5 382.2,-356.6C392.4,-360.6 420.7,-364.7 445.0,-366.7L489.6,-369.4L495.0,-250.5C497.7,-185.0 501.1,-122.9 501.8,-111.4C503.1,-100.6 503.8,-72.9 504.5,-50.0C505.1,-12.8 506.5,-8.1 522.7,-0.7C537.6,6.1 543.6,5.4 556.5,-3.4C574.7,-14.9 575.4,-18.2 565.9,-57.4C559.2,-87.1 555.8,-122.9 545.7,-268.8C541.6,-322.1 540.3,-368.1 542.3,-371.4C543.6,-374.1 559.8,-378.2 577.4,-380.9C635.5,-388.3 787.4,-428.8 798.9,-439.6C802.3,-443.0 811.7,-445.7 819.8,-445.7C828.6,-445.7 836.7,-448.4 839.4,-451.8C844.2,-459.9 780.7,-454.5 775.3,-446.4C773.2,-443.0 753.7,-438.3 731.4,-435.6C709.1,-432.9 672.6,-426.8 650.3,-422.1C628.1,-417.4 592.9,-411.9 572.7,-410.6L535.5,-408.6L528.1,-563.9C520.7,-715.2 516.6,-742.9 504.5,-742.9C501.1,-742.9 498.4,-737.5 497.7,-731.4ZM1211.5,-630.1C1214.2,-619.3 1219.0,-609.8 1222.3,-609.1C1225.0,-607.8 1225.7,-603.7 1223.7,-600.4C1216.3,-588.2 1216.9,-99.9 1224.4,-89.8C1229.1,-83.7 1239.9,-81.0 1251.4,-82.4C1268.9,-84.4 1275.7,-91.8 1302.0,-142.5C1356.7,-247.8 1439.1,-344.4 1499.2,-375.5C1535.7,-394.4 1542.4,-401.8 1526.9,-407.9C1493.1,-421.4 1370.2,-322.1 1312.2,-235.0C1298.0,-213.4 1283.8,-195.8 1281.1,-195.8C1277.7,-195.8 1273.0,-195.2 1270.3,-194.5C1264.9,-191.8 1262.2,-238.4 1260.8,-400.5C1259.5,-537.6 1248.0,-625.4 1229.8,-640.2C1212.2,-653.0 1206.8,-649.7 1211.5,-630.1ZM946.8,-496.4C913.0,-486.9 876.6,-475.4 865.8,-469.4C846.2,-459.2 846.2,-459.2 863.1,-459.2C872.5,-459.2 893.5,-463.9 910.3,-469.4C1042.0,-511.9 1061.6,-526.8 946.8,-496.4ZM276.2,-455.8C226.2,-434.9 208.0,-420.1 208.0,-402.5C208.0,-382.9 263.4,-298.5 305.9,-253.2C366.0,-189.1 378.2,-135.7 341.7,-96.6C327.5,-81.0 322.8,-80.4 289.0,-83.7C253.2,-87.8 180.3,-122.9 143.8,-154.0C126.3,-168.8 99.9,-211.4 99.9,-224.9C99.9,-230.3 113.5,-241.8 130.3,-249.9C147.2,-258.0 160.7,-267.4 160.7,-270.8C160.7,-278.9 162.8,-278.9 120.2,-262.7C99.9,-255.3 78.3,-247.2 72.3,-245.1C66.2,-243.8 56.7,-234.3 52.0,-224.9C43.2,-209.4 44.6,-206.6 62.8,-191.8C74.3,-183.0 84.4,-179.0 85.1,-182.3C86.4,-186.4 90.5,-187.1 93.9,-185.0C97.9,-182.3 97.9,-177.6 93.2,-172.2C87.8,-165.5 93.9,-156.7 119.5,-134.4C198.5,-64.8 296.5,-36.5 354.5,-66.2C388.3,-83.7 400.5,-102.6 406.5,-145.9C410.6,-178.3 409.2,-183.0 386.3,-216.8C373.5,-237.0 354.5,-260.7 345.8,-270.1C295.8,-321.5 248.5,-387.6 248.5,-405.9C248.5,-433.6 332.9,-467.3 346.4,-445.7C348.5,-442.3 359.3,-439.0 370.1,-439.0C396.4,-439.0 390.3,-455.8 361.3,-465.3C332.9,-474.8 315.4,-472.7 276.2,-455.8ZM822.5,-332.3C817.1,-328.9 800.3,-323.5 785.4,-320.8C741.5,-313.4 715.2,-293.1 696.9,-251.9C688.2,-231.0 680.7,-210.7 680.7,-206.6C680.7,-201.9 676.7,-192.5 671.3,-185.0C661.8,-172.9 660.5,-172.9 641.6,-195.2C630.1,-209.4 619.3,-216.1 614.5,-213.4C601.7,-206.0 605.1,-194.5 618.6,-198.5C629.4,-201.9 630.8,-197.9 631.4,-166.1C632.1,-145.9 637.5,-120.2 642.9,-109.4C649.0,-97.9 653.7,-79.7 653.7,-69.6C653.7,-59.4 659.8,-37.8 667.2,-22.3C677.4,0.7 683.4,6.8 697.6,6.8C711.1,6.8 714.5,3.4 715.2,-12.2C715.2,-22.3 716.5,-65.5 717.2,-108.1C718.5,-192.5 728.7,-245.1 746.2,-264.7C759.1,-278.9 815.1,-297.1 846.9,-297.1C885.4,-297.1 902.2,-285.0 907.6,-254.6C910.3,-237.0 919.1,-220.2 931.3,-208.7C948.8,-192.5 950.9,-185.7 950.9,-148.6C950.9,-117.5 954.2,-102.0 964.4,-87.8C991.4,-49.3 1066.3,-27.0 1085.9,-50.6C1090.6,-56.1 1101.5,-60.8 1109.6,-60.8C1117.7,-60.8 1139.3,-71.6 1156.8,-85.1L1189.2,-110.1L1184.5,-151.3C1182.5,-174.2 1177.1,-193.8 1173.7,-194.5C1169.7,-195.8 1167.0,-204.6 1167.0,-214.1C1167.0,-237.7 1123.1,-280.3 1089.3,-289.7C1074.4,-293.8 1038.0,-299.2 1008.3,-301.2C978.5,-303.2 942.1,-310.6 926.5,-317.4C892.8,-332.9 836.7,-340.4 822.5,-332.3ZM1046.8,-262.7C1105.5,-248.5 1132.5,-209.4 1133.2,-137.8C1133.2,-112.8 1130.5,-109.4 1106.9,-95.9C1075.8,-78.3 1063.6,-77.7 1038.6,-91.8C1000.8,-114.8 986.0,-179.0 1011.6,-211.4C1029.2,-233.0 1028.5,-235.7 1008.3,-243.1C988.0,-250.5 983.3,-280.3 1003.5,-274.2C1009.6,-272.2 1029.2,-267.4 1046.8,-262.7ZM1713.3,-299.8C1659.3,-283.6 1620.1,-251.2 1595.8,-204.6C1584.3,-181.7 1570.8,-158.7 1566.1,-153.3C1560.0,-145.9 1560.0,-135.1 1565.4,-111.4C1569.5,-93.9 1570.8,-77.7 1568.8,-75.6C1555.9,-62.8 1431.7,-115.5 1392.5,-149.9C1368.2,-171.5 1335.8,-181.0 1335.8,-166.8C1336.5,-146.5 1429.7,-78.3 1472.9,-66.9C1488.4,-62.8 1508.7,-56.7 1518.1,-54.0C1527.6,-50.6 1546.5,-46.6 1561.4,-43.9C1575.5,-41.9 1593.8,-33.1 1601.9,-25.0C1678.2,50.0 1770.0,69.6 1909.1,40.5C1944.3,33.1 1981.4,27.0 1991.5,27.0C2001.7,27.0 2011.8,24.3 2013.8,20.9C2015.8,17.6 2028.0,12.8 2041.5,10.8C2054.3,8.1 2066.5,2.7 2069.2,-1.4C2072.6,-6.8 2067.2,-7.4 2051.0,-4.1C1959.8,15.5 1843.0,28.4 1799.1,23.6C1718.7,14.9 1649.1,-24.3 1622.1,-75.6C1607.9,-103.3 1610.0,-108.1 1639.7,-108.1C1666.0,-108.1 1748.4,-143.2 1753.1,-156.0C1754.5,-159.4 1758.5,-162.1 1761.9,-162.1C1766.0,-162.1 1777.5,-168.8 1788.3,-176.9C1805.8,-189.8 1808.5,-195.8 1808.5,-224.2C1808.5,-251.2 1806.5,-256.6 1796.4,-256.6C1786.2,-256.6 1784.2,-251.2 1784.2,-224.9C1784.9,-193.8 1784.2,-192.5 1747.7,-168.2C1726.1,-153.3 1697.8,-141.1 1680.2,-138.4C1663.3,-135.7 1645.8,-130.3 1640.4,-126.3C1633.6,-120.2 1629.6,-121.6 1622.1,-131.7C1608.6,-149.9 1610.0,-164.8 1629.6,-202.6C1651.8,-246.5 1701.8,-285.7 1730.9,-280.9C1778.8,-273.5 1791.0,-272.2 1782.9,-274.9C1778.1,-276.9 1776.1,-280.3 1778.1,-283.6C1781.5,-289.0 1755.8,-311.3 1747.7,-310.0C1745.7,-310.0 1730.2,-305.2 1713.3,-299.8Z"/></g></svg>